<?xml version="1.0" encoding="us-ascii" standalone="no"?><svg xmlns="http://www.w3.org/2000/svg" xmlns:xlink="http://www.w3.org/1999/xlink" contentStyleType="text/css" height="524px" preserveAspectRatio="none" style="width:991px;height:524px;background:#FFFFFF;" version="1.1" viewBox="0 0 991 524" width="991px" zoomAndPan="magnify"><defs/><g><!--class Korisnik--><g id="elem_Korisnik"><rect codeLine="1" fill="#F1F1F1" height="171.2656" id="Korisnik" rx="2.5" ry="2.5" style="stroke:#181818;stroke-width:0.5;" width="129" x="305.5" y="7"/><ellipse cx="341.65" cy="23" fill="#ADD1B2" rx="11" ry="11" style="stroke:#181818;stroke-width:1.0;"/><path d="M344.4156,18.875 Q344.5719,18.6563 344.7594,18.5469 Q344.9469,18.4375 345.1656,18.4375 Q345.5406,18.4375 345.775,18.7031 Q346.0094,18.9531 346.0094,19.5625 L346.0094,21.0156 Q346.0094,21.625 345.775,21.8906 Q345.5406,22.1563 345.1656,22.1563 Q344.8219,22.1563 344.6188,21.9531 Q344.4156,21.7656 344.3063,21.25 Q344.2594,20.8906 344.0719,20.7031 Q343.7438,20.3281 343.1344,20.1094 Q342.525,19.8906 341.9,19.8906 Q341.1344,19.8906 340.4938,20.2188 Q339.8688,20.5469 339.3688,21.2969 Q338.8844,22.0469 338.8844,23.0781 L338.8844,24.1719 Q338.8844,25.4063 339.775,26.2344 Q340.6656,27.0469 342.2594,27.0469 Q343.1969,27.0469 343.8531,26.7969 Q344.2438,26.6406 344.6656,26.2031 Q344.9313,25.9375 345.0719,25.8594 Q345.2281,25.7813 345.4313,25.7813 Q345.7594,25.7813 346.0094,26.0469 Q346.275,26.2969 346.275,26.6406 Q346.275,26.9844 345.9313,27.3906 Q345.4313,27.9688 344.6344,28.2969 Q343.5563,28.75 342.2594,28.75 Q340.7438,28.75 339.5406,28.125 Q338.5563,27.625 337.8688,26.5625 Q337.1813,25.4844 337.1813,24.2031 L337.1813,23.0469 Q337.1813,21.7188 337.7906,20.5781 Q338.4156,19.4219 339.5094,18.8125 Q340.6031,18.1875 341.8375,18.1875 Q342.5719,18.1875 343.2125,18.3594 Q343.8688,18.5156 344.4156,18.875 Z " fill="#000000"/><text fill="#000000" font-family="sans-serif" font-size="14" lengthAdjust="spacing" textLength="50" x="360.35" y="28.7285">Korisnik</text><line style="stroke:#181818;stroke-width:0.5;" x1="306.5" x2="433.5" y1="39" y2="39"/><rect fill="none" height="6" style="stroke:#C82930;stroke-width:1.0;" width="6" x="313.5" y="50.3047"/><text fill="#000000" font-family="sans-serif" font-size="14" lengthAdjust="spacing" textLength="34" x="325.5" y="57.5332">id: int</text><rect fill="none" height="6" style="stroke:#C82930;stroke-width:1.0;" width="6" x="313.5" y="67.9141"/><text fill="#000000" font-family="sans-serif" font-size="14" lengthAdjust="spacing" textLength="65" x="325.5" y="75.1426">ime: string</text><rect fill="none" height="6" style="stroke:#C82930;stroke-width:1.0;" width="6" x="313.5" y="85.5234"/><text fill="#000000" font-family="sans-serif" font-size="14" lengthAdjust="spacing" textLength="92" x="325.5" y="92.752">prezime: string</text><rect fill="none" height="6" style="stroke:#C82930;stroke-width:1.0;" width="6" x="313.5" y="103.1328"/><text fill="#000000" font-family="sans-serif" font-size="14" lengthAdjust="spacing" textLength="76" x="325.5" y="110.3613">email: string</text><rect fill="none" height="6" style="stroke:#C82930;stroke-width:1.0;" width="6" x="313.5" y="120.7422"/><text fill="#000000" font-family="sans-serif" font-size="14" lengthAdjust="spacing" textLength="103" x="325.5" y="127.9707">password: string</text><rect fill="none" height="6" style="stroke:#C82930;stroke-width:1.0;" width="6" x="313.5" y="138.3516"/><text fill="#000000" font-family="sans-serif" font-size="14" lengthAdjust="spacing" textLength="62" x="325.5" y="145.5801">pol: string</text><rect fill="none" height="6" style="stroke:#C82930;stroke-width:1.0;" width="6" x="313.5" y="155.9609"/><text fill="#000000" font-family="sans-serif" font-size="14" lengthAdjust="spacing" textLength="80" x="325.5" y="163.1895">JMBG: string</text><line style="stroke:#181818;stroke-width:0.5;" x1="306.5" x2="433.5" y1="170.2656" y2="170.2656"/></g><!--class Student--><g id="elem_Student"><rect codeLine="11" fill="#F1F1F1" height="83.2188" id="Student" rx="2.5" ry="2.5" style="stroke:#181818;stroke-width:0.5;" width="226" x="7" y="247"/><ellipse cx="91.25" cy="263" fill="#ADD1B2" rx="11" ry="11" style="stroke:#181818;stroke-width:1.0;"/><path d="M94.0156,258.875 Q94.1719,258.6563 94.3594,258.5469 Q94.5469,258.4375 94.7656,258.4375 Q95.1406,258.4375 95.375,258.7031 Q95.6094,258.9531 95.6094,259.5625 L95.6094,261.0156 Q95.6094,261.625 95.375,261.8906 Q95.1406,262.1563 94.7656,262.1563 Q94.4219,262.1563 94.2188,261.9531 Q94.0156,261.7656 93.9063,261.25 Q93.8594,260.8906 93.6719,260.7031 Q93.3438,260.3281 92.7344,260.1094 Q92.125,259.8906 91.5,259.8906 Q90.7344,259.8906 90.0938,260.2188 Q89.4688,260.5469 88.9688,261.2969 Q88.4844,262.0469 88.4844,263.0781 L88.4844,264.1719 Q88.4844,265.4063 89.375,266.2344 Q90.2656,267.0469 91.8594,267.0469 Q92.7969,267.0469 93.4531,266.7969 Q93.8438,266.6406 94.2656,266.2031 Q94.5313,265.9375 94.6719,265.8594 Q94.8281,265.7813 95.0313,265.7813 Q95.3594,265.7813 95.6094,266.0469 Q95.875,266.2969 95.875,266.6406 Q95.875,266.9844 95.5313,267.3906 Q95.0313,267.9688 94.2344,268.2969 Q93.1563,268.75 91.8594,268.75 Q90.3438,268.75 89.1406,268.125 Q88.1563,267.625 87.4688,266.5625 Q86.7813,265.4844 86.7813,264.2031 L86.7813,263.0469 Q86.7813,261.7188 87.3906,260.5781 Q88.0156,259.4219 89.1094,258.8125 Q90.2031,258.1875 91.4375,258.1875 Q92.1719,258.1875 92.8125,258.3594 Q93.4688,258.5156 94.0156,258.875 Z " fill="#000000"/><text fill="#000000" font-family="sans-serif" font-size="14" lengthAdjust="spacing" textLength="49" x="111.75" y="268.7285">Student</text><line style="stroke:#181818;stroke-width:0.5;" x1="8" x2="232" y1="279" y2="279"/><rect fill="none" height="6" style="stroke:#C82930;stroke-width:1.0;" width="6" x="15" y="290.3047"/><text fill="#000000" font-family="sans-serif" font-size="14" lengthAdjust="spacing" textLength="199" x="27" y="297.5332">tipFinansiranja: TipFinansiranja</text><rect fill="none" height="6" style="stroke:#C82930;stroke-width:1.0;" width="6" x="15" y="307.9141"/><text fill="#000000" font-family="sans-serif" font-size="14" lengthAdjust="spacing" textLength="200" x="27" y="315.1426">infoOStudiranju:InfoOStudiranju</text><line style="stroke:#181818;stroke-width:0.5;" x1="8" x2="232" y1="322.2188" y2="322.2188"/></g><!--class Majstor--><g id="elem_Majstor"><rect codeLine="16" fill="#F1F1F1" height="48" id="Majstor" rx="2.5" ry="2.5" style="stroke:#181818;stroke-width:0.5;" width="78" x="455" y="264.5"/><ellipse cx="470" cy="280.5" fill="#ADD1B2" rx="11" ry="11" style="stroke:#181818;stroke-width:1.0;"/><path d="M472.7656,276.375 Q472.9219,276.1563 473.1094,276.0469 Q473.2969,275.9375 473.5156,275.9375 Q473.8906,275.9375 474.125,276.2031 Q474.3594,276.4531 474.3594,277.0625 L474.3594,278.5156 Q474.3594,279.125 474.125,279.3906 Q473.8906,279.6563 473.5156,279.6563 Q473.1719,279.6563 472.9688,279.4531 Q472.7656,279.2656 472.6563,278.75 Q472.6094,278.3906 472.4219,278.2031 Q472.0938,277.8281 471.4844,277.6094 Q470.875,277.3906 470.25,277.3906 Q469.4844,277.3906 468.8438,277.7188 Q468.2188,278.0469 467.7188,278.7969 Q467.2344,279.5469 467.2344,280.5781 L467.2344,281.6719 Q467.2344,282.9063 468.125,283.7344 Q469.0156,284.5469 470.6094,284.5469 Q471.5469,284.5469 472.2031,284.2969 Q472.5938,284.1406 473.0156,283.7031 Q473.2813,283.4375 473.4219,283.3594 Q473.5781,283.2813 473.7813,283.2813 Q474.1094,283.2813 474.3594,283.5469 Q474.625,283.7969 474.625,284.1406 Q474.625,284.4844 474.2813,284.8906 Q473.7813,285.4688 472.9844,285.7969 Q471.9063,286.25 470.6094,286.25 Q469.0938,286.25 467.8906,285.625 Q466.9063,285.125 466.2188,284.0625 Q465.5313,282.9844 465.5313,281.7031 L465.5313,280.5469 Q465.5313,279.2188 466.1406,278.0781 Q466.7656,276.9219 467.8594,276.3125 Q468.9531,275.6875 470.1875,275.6875 Q470.9219,275.6875 471.5625,275.8594 Q472.2188,276.0156 472.7656,276.375 Z " fill="#000000"/><text fill="#000000" font-family="sans-serif" font-size="14" lengthAdjust="spacing" textLength="46" x="484" y="286.2285">Majstor</text><line style="stroke:#181818;stroke-width:0.5;" x1="456" x2="532" y1="296.5" y2="296.5"/><line style="stroke:#181818;stroke-width:0.5;" x1="456" x2="532" y1="304.5" y2="304.5"/></g><!--class Soba--><g id="elem_Soba"><rect codeLine="19" fill="#F1F1F1" height="100.8281" id="Soba" rx="2.5" ry="2.5" style="stroke:#181818;stroke-width:0.5;" width="108" x="66" y="42"/><ellipse cx="100.35" cy="58" fill="#ADD1B2" rx="11" ry="11" style="stroke:#181818;stroke-width:1.0;"/><path d="M103.1156,53.875 Q103.2719,53.6563 103.4594,53.5469 Q103.6469,53.4375 103.8656,53.4375 Q104.2406,53.4375 104.475,53.7031 Q104.7094,53.9531 104.7094,54.5625 L104.7094,56.0156 Q104.7094,56.625 104.475,56.8906 Q104.2406,57.1563 103.8656,57.1563 Q103.5219,57.1563 103.3188,56.9531 Q103.1156,56.7656 103.0063,56.25 Q102.9594,55.8906 102.7719,55.7031 Q102.4438,55.3281 101.8344,55.1094 Q101.225,54.8906 100.6,54.8906 Q99.8344,54.8906 99.1938,55.2188 Q98.5688,55.5469 98.0688,56.2969 Q97.5844,57.0469 97.5844,58.0781 L97.5844,59.1719 Q97.5844,60.4063 98.475,61.2344 Q99.3656,62.0469 100.9594,62.0469 Q101.8969,62.0469 102.5531,61.7969 Q102.9438,61.6406 103.3656,61.2031 Q103.6313,60.9375 103.7719,60.8594 Q103.9281,60.7813 104.1313,60.7813 Q104.4594,60.7813 104.7094,61.0469 Q104.975,61.2969 104.975,61.6406 Q104.975,61.9844 104.6313,62.3906 Q104.1313,62.9688 103.3344,63.2969 Q102.2563,63.75 100.9594,63.75 Q99.4438,63.75 98.2406,63.125 Q97.2563,62.625 96.5688,61.5625 Q95.8813,60.4844 95.8813,59.2031 L95.8813,58.0469 Q95.8813,56.7188 96.4906,55.5781 Q97.1156,54.4219 98.2094,53.8125 Q99.3031,53.1875 100.5375,53.1875 Q101.2719,53.1875 101.9125,53.3594 Q102.5688,53.5156 103.1156,53.875 Z " fill="#000000"/><text fill="#000000" font-family="sans-serif" font-size="14" lengthAdjust="spacing" textLength="33" x="118.65" y="63.7285">Soba</text><line style="stroke:#181818;stroke-width:0.5;" x1="67" x2="173" y1="74" y2="74"/><rect fill="none" height="6" style="stroke:#C82930;stroke-width:1.0;" width="6" x="74" y="85.3047"/><text fill="#000000" font-family="sans-serif" font-size="14" lengthAdjust="spacing" textLength="80" x="86" y="92.5332">brojSobe: int</text><rect fill="none" height="6" style="stroke:#C82930;stroke-width:1.0;" width="6" x="74" y="102.9141"/><text fill="#000000" font-family="sans-serif" font-size="14" lengthAdjust="spacing" textLength="80" x="86" y="110.1426">kapacitet: int</text><rect fill="none" height="6" style="stroke:#C82930;stroke-width:1.0;" width="6" x="74" y="120.5234"/><text fill="#000000" font-family="sans-serif" font-size="14" lengthAdjust="spacing" textLength="82" x="86" y="127.752">zgrada:string</text><line style="stroke:#181818;stroke-width:0.5;" x1="67" x2="173" y1="134.8281" y2="134.8281"/></g><!--class ZahtevZaPopravku--><g id="elem_ZahtevZaPopravku"><rect codeLine="25" fill="#F1F1F1" height="100.8281" id="ZahtevZaPopravku" rx="2.5" ry="2.5" style="stroke:#181818;stroke-width:0.5;" width="151" x="268.5" y="238"/><ellipse cx="283.5" cy="254" fill="#ADD1B2" rx="11" ry="11" style="stroke:#181818;stroke-width:1.0;"/><path d="M286.2656,249.875 Q286.4219,249.6563 286.6094,249.5469 Q286.7969,249.4375 287.0156,249.4375 Q287.3906,249.4375 287.625,249.7031 Q287.8594,249.9531 287.8594,250.5625 L287.8594,252.0156 Q287.8594,252.625 287.625,252.8906 Q287.3906,253.1563 287.0156,253.1563 Q286.6719,253.1563 286.4688,252.9531 Q286.2656,252.7656 286.1563,252.25 Q286.1094,251.8906 285.9219,251.7031 Q285.5938,251.3281 284.9844,251.1094 Q284.375,250.8906 283.75,250.8906 Q282.9844,250.8906 282.3438,251.2188 Q281.7188,251.5469 281.2188,252.2969 Q280.7344,253.0469 280.7344,254.0781 L280.7344,255.1719 Q280.7344,256.4063 281.625,257.2344 Q282.5156,258.0469 284.1094,258.0469 Q285.0469,258.0469 285.7031,257.7969 Q286.0938,257.6406 286.5156,257.2031 Q286.7813,256.9375 286.9219,256.8594 Q287.0781,256.7813 287.2813,256.7813 Q287.6094,256.7813 287.8594,257.0469 Q288.125,257.2969 288.125,257.6406 Q288.125,257.9844 287.7813,258.3906 Q287.2813,258.9688 286.4844,259.2969 Q285.4063,259.75 284.1094,259.75 Q282.5938,259.75 281.3906,259.125 Q280.4063,258.625 279.7188,257.5625 Q279.0313,256.4844 279.0313,255.2031 L279.0313,254.0469 Q279.0313,252.7188 279.6406,251.5781 Q280.2656,250.4219 281.3594,249.8125 Q282.4531,249.1875 283.6875,249.1875 Q284.4219,249.1875 285.0625,249.3594 Q285.7188,249.5156 286.2656,249.875 Z " fill="#000000"/><text fill="#000000" font-family="sans-serif" font-size="14" lengthAdjust="spacing" textLength="119" x="297.5" y="259.7285">ZahtevZaPopravku</text><line style="stroke:#181818;stroke-width:0.5;" x1="269.5" x2="418.5" y1="270" y2="270"/><rect fill="none" height="6" style="stroke:#C82930;stroke-width:1.0;" width="6" x="276.5" y="281.3047"/><text fill="#000000" font-family="sans-serif" font-size="14" lengthAdjust="spacing" textLength="77" x="288.5" y="288.5332">zahtevID: int</text><rect fill="none" height="6" style="stroke:#C82930;stroke-width:1.0;" width="6" x="276.5" y="298.9141"/><text fill="#000000" font-family="sans-serif" font-size="14" lengthAdjust="spacing" textLength="69" x="288.5" y="306.1426">opis: string</text><rect fill="none" height="6" style="stroke:#C82930;stroke-width:1.0;" width="6" x="276.5" y="316.5234"/><text fill="#000000" font-family="sans-serif" font-size="14" lengthAdjust="spacing" textLength="103" x="288.5" y="323.752">reseno: boolean</text><line style="stroke:#181818;stroke-width:0.5;" x1="269.5" x2="418.5" y1="330.8281" y2="330.8281"/></g><!--class InfoOStudiranju--><g id="elem_InfoOStudiranju"><rect codeLine="31" fill="#F1F1F1" height="118.4375" id="InfoOStudiranju" rx="2.5" ry="2.5" style="stroke:#181818;stroke-width:0.5;" width="162" x="39" y="399"/><ellipse cx="68.4" cy="415" fill="#ADD1B2" rx="11" ry="11" style="stroke:#181818;stroke-width:1.0;"/><path d="M71.1656,410.875 Q71.3219,410.6563 71.5094,410.5469 Q71.6969,410.4375 71.9156,410.4375 Q72.2906,410.4375 72.525,410.7031 Q72.7594,410.9531 72.7594,411.5625 L72.7594,413.0156 Q72.7594,413.625 72.525,413.8906 Q72.2906,414.1563 71.9156,414.1563 Q71.5719,414.1563 71.3688,413.9531 Q71.1656,413.7656 71.0563,413.25 Q71.0094,412.8906 70.8219,412.7031 Q70.4938,412.3281 69.8844,412.1094 Q69.275,411.8906 68.65,411.8906 Q67.8844,411.8906 67.2438,412.2188 Q66.6188,412.5469 66.1188,413.2969 Q65.6344,414.0469 65.6344,415.0781 L65.6344,416.1719 Q65.6344,417.4063 66.525,418.2344 Q67.4156,419.0469 69.0094,419.0469 Q69.9469,419.0469 70.6031,418.7969 Q70.9938,418.6406 71.4156,418.2031 Q71.6813,417.9375 71.8219,417.8594 Q71.9781,417.7813 72.1813,417.7813 Q72.5094,417.7813 72.7594,418.0469 Q73.025,418.2969 73.025,418.6406 Q73.025,418.9844 72.6813,419.3906 Q72.1813,419.9688 71.3844,420.2969 Q70.3063,420.75 69.0094,420.75 Q67.4938,420.75 66.2906,420.125 Q65.3063,419.625 64.6188,418.5625 Q63.9313,417.4844 63.9313,416.2031 L63.9313,415.0469 Q63.9313,413.7188 64.5406,412.5781 Q65.1656,411.4219 66.2594,410.8125 Q67.3531,410.1875 68.5875,410.1875 Q69.3219,410.1875 69.9625,410.3594 Q70.6188,410.5156 71.1656,410.875 Z " fill="#000000"/><text fill="#000000" font-family="sans-serif" font-size="14" lengthAdjust="spacing" textLength="98" x="85.6" y="420.7285">InfoOStudiranju</text><line style="stroke:#181818;stroke-width:0.5;" x1="40" x2="200" y1="431" y2="431"/><rect fill="none" height="6" style="stroke:#C82930;stroke-width:1.0;" width="6" x="47" y="442.3047"/><text fill="#000000" font-family="sans-serif" font-size="14" lengthAdjust="spacing" textLength="136" x="59" y="449.5332">prosekIzSrednje: float</text><rect fill="none" height="6" style="stroke:#C82930;stroke-width:1.0;" width="6" x="47" y="459.9141"/><text fill="#000000" font-family="sans-serif" font-size="14" lengthAdjust="spacing" textLength="78" x="59" y="467.1426">prosek: float</text><rect fill="none" height="6" style="stroke:#C82930;stroke-width:1.0;" width="6" x="47" y="477.5234"/><text fill="#000000" font-family="sans-serif" font-size="14" lengthAdjust="spacing" textLength="59" x="59" y="484.752">ESBP: int</text><rect fill="none" height="6" style="stroke:#C82930;stroke-width:1.0;" width="6" x="47" y="495.1328"/><text fill="#000000" font-family="sans-serif" font-size="14" lengthAdjust="spacing" textLength="109" x="59" y="502.3613">godinaStudije: int</text><line style="stroke:#181818;stroke-width:0.5;" x1="40" x2="200" y1="509.4375" y2="509.4375"/></g><!--class Prijava--><g id="elem_Prijava"><rect codeLine="37" fill="#F1F1F1" height="65.6094" id="Prijava" rx="2.5" ry="2.5" style="stroke:#181818;stroke-width:0.5;" width="151" x="517.5" y="59.5"/><ellipse cx="567.25" cy="75.5" fill="#ADD1B2" rx="11" ry="11" style="stroke:#181818;stroke-width:1.0;"/><path d="M570.0156,71.375 Q570.1719,71.1563 570.3594,71.0469 Q570.5469,70.9375 570.7656,70.9375 Q571.1406,70.9375 571.375,71.2031 Q571.6094,71.4531 571.6094,72.0625 L571.6094,73.5156 Q571.6094,74.125 571.375,74.3906 Q571.1406,74.6563 570.7656,74.6563 Q570.4219,74.6563 570.2188,74.4531 Q570.0156,74.2656 569.9063,73.75 Q569.8594,73.3906 569.6719,73.2031 Q569.3438,72.8281 568.7344,72.6094 Q568.125,72.3906 567.5,72.3906 Q566.7344,72.3906 566.0938,72.7188 Q565.4688,73.0469 564.9688,73.7969 Q564.4844,74.5469 564.4844,75.5781 L564.4844,76.6719 Q564.4844,77.9063 565.375,78.7344 Q566.2656,79.5469 567.8594,79.5469 Q568.7969,79.5469 569.4531,79.2969 Q569.8438,79.1406 570.2656,78.7031 Q570.5313,78.4375 570.6719,78.3594 Q570.8281,78.2813 571.0313,78.2813 Q571.3594,78.2813 571.6094,78.5469 Q571.875,78.7969 571.875,79.1406 Q571.875,79.4844 571.5313,79.8906 Q571.0313,80.4688 570.2344,80.7969 Q569.1563,81.25 567.8594,81.25 Q566.3438,81.25 565.1406,80.625 Q564.1563,80.125 563.4688,79.0625 Q562.7813,77.9844 562.7813,76.7031 L562.7813,75.5469 Q562.7813,74.2188 563.3906,73.0781 Q564.0156,71.9219 565.1094,71.3125 Q566.2031,70.6875 567.4375,70.6875 Q568.1719,70.6875 568.8125,70.8594 Q569.4688,71.0156 570.0156,71.375 Z " fill="#000000"/><text fill="#000000" font-family="sans-serif" font-size="14" lengthAdjust="spacing" textLength="43" x="587.75" y="81.2285">Prijava</text><line style="stroke:#181818;stroke-width:0.5;" x1="518.5" x2="667.5" y1="91.5" y2="91.5"/><rect fill="none" height="6" style="stroke:#C82930;stroke-width:1.0;" width="6" x="525.5" y="102.8047"/><text fill="#000000" font-family="sans-serif" font-size="14" lengthAdjust="spacing" textLength="125" x="537.5" y="110.0332">status:StatusPrijave</text><line style="stroke:#181818;stroke-width:0.5;" x1="518.5" x2="667.5" y1="117.1094" y2="117.1094"/></g><!--class Konkurs--><g id="elem_Konkurs"><rect codeLine="40" fill="#F1F1F1" height="83.2188" id="Konkurs" rx="2.5" ry="2.5" style="stroke:#181818;stroke-width:0.5;" width="148" x="568" y="247"/><ellipse cx="611.8" cy="263" fill="#ADD1B2" rx="11" ry="11" style="stroke:#181818;stroke-width:1.0;"/><path d="M614.5656,258.875 Q614.7219,258.6563 614.9094,258.5469 Q615.0969,258.4375 615.3156,258.4375 Q615.6906,258.4375 615.925,258.7031 Q616.1594,258.9531 616.1594,259.5625 L616.1594,261.0156 Q616.1594,261.625 615.925,261.8906 Q615.6906,262.1563 615.3156,262.1563 Q614.9719,262.1563 614.7688,261.9531 Q614.5656,261.7656 614.4563,261.25 Q614.4094,260.8906 614.2219,260.7031 Q613.8938,260.3281 613.2844,260.1094 Q612.675,259.8906 612.05,259.8906 Q611.2844,259.8906 610.6438,260.2188 Q610.0188,260.5469 609.5188,261.2969 Q609.0344,262.0469 609.0344,263.0781 L609.0344,264.1719 Q609.0344,265.4063 609.925,266.2344 Q610.8156,267.0469 612.4094,267.0469 Q613.3469,267.0469 614.0031,266.7969 Q614.3938,266.6406 614.8156,266.2031 Q615.0813,265.9375 615.2219,265.8594 Q615.3781,265.7813 615.5813,265.7813 Q615.9094,265.7813 616.1594,266.0469 Q616.425,266.2969 616.425,266.6406 Q616.425,266.9844 616.0813,267.3906 Q615.5813,267.9688 614.7844,268.2969 Q613.7063,268.75 612.4094,268.75 Q610.8938,268.75 609.6906,268.125 Q608.7063,267.625 608.0188,266.5625 Q607.3313,265.4844 607.3313,264.2031 L607.3313,263.0469 Q607.3313,261.7188 607.9406,260.5781 Q608.5656,259.4219 609.6594,258.8125 Q610.7531,258.1875 611.9875,258.1875 Q612.7219,258.1875 613.3625,258.3594 Q614.0188,258.5156 614.5656,258.875 Z " fill="#000000"/><text fill="#000000" font-family="sans-serif" font-size="14" lengthAdjust="spacing" textLength="52" x="632.2" y="268.7285">Konkurs</text><line style="stroke:#181818;stroke-width:0.5;" x1="569" x2="715" y1="279" y2="279"/><rect fill="none" height="6" style="stroke:#C82930;stroke-width:1.0;" width="6" x="576" y="290.3047"/><text fill="#000000" font-family="sans-serif" font-size="14" lengthAdjust="spacing" textLength="122" x="588" y="297.5332">startKonkursa:Date</text><rect fill="none" height="6" style="stroke:#C82930;stroke-width:1.0;" width="6" x="576" y="307.9141"/><text fill="#000000" font-family="sans-serif" font-size="14" lengthAdjust="spacing" textLength="117" x="588" y="315.1426">krajKonkursa:Date</text><line style="stroke:#181818;stroke-width:0.5;" x1="569" x2="715" y1="322.2188" y2="322.2188"/></g><!--class StatusPrijave--><g id="elem_StatusPrijave"><rect codeLine="44" fill="#F1F1F1" height="100.8281" id="StatusPrijave" rx="2.5" ry="2.5" style="stroke:#181818;stroke-width:0.5;" width="115" x="703.5" y="42"/><ellipse cx="718.5" cy="58" fill="#EB937F" rx="11" ry="11" style="stroke:#181818;stroke-width:1.0;"/><path d="M717.3594,58.7969 L717.3594,61.2969 L721.6875,61.2969 L721.6875,60.375 Q721.6875,59.7656 721.9219,59.5 Q722.1719,59.2344 722.5469,59.2344 Q722.9219,59.2344 723.1563,59.5 Q723.3906,59.7656 723.3906,60.375 L723.3906,63 L715.3906,63 Q714.7656,63 714.5,62.7656 Q714.25,62.5313 714.25,62.1406 Q714.25,61.7656 714.5156,61.5313 Q714.7813,61.2969 715.3906,61.2969 L715.6563,61.2969 L715.6563,54.6406 L715.3906,54.6406 Q714.7656,54.6406 714.5,54.4063 Q714.25,54.1719 714.25,53.7813 Q714.25,53.4063 714.5,53.1719 Q714.7656,52.9375 715.3906,52.9375 L723.0156,52.9375 L723.0156,55.5313 Q723.0156,56.1406 722.7813,56.4063 Q722.5625,56.6563 722.1719,56.6563 Q721.7969,56.6563 721.5625,56.4063 Q721.3281,56.1406 721.3281,55.5313 L721.3281,54.6406 L717.3594,54.6406 L717.3594,57.0938 L718.8438,57.0938 Q718.8438,56.4375 718.9688,56.25 Q719.2344,55.8438 719.7031,55.8438 Q720.0781,55.8438 720.3125,56.1094 Q720.5469,56.3594 720.5469,56.9688 L720.5469,58.9375 Q720.5469,59.4844 720.4219,59.6719 Q720.1563,60.0625 719.7031,60.0625 Q719.2344,60.0625 718.9688,59.6563 Q718.8438,59.4688 718.8438,58.7969 L717.3594,58.7969 Z " fill="#000000"/><text fill="#000000" font-family="sans-serif" font-size="14" lengthAdjust="spacing" textLength="83" x="732.5" y="63.7285">StatusPrijave</text><line style="stroke:#181818;stroke-width:0.5;" x1="704.5" x2="817.5" y1="74" y2="74"/><text fill="#000000" font-family="sans-serif" font-size="14" lengthAdjust="spacing" textLength="64" x="709.5" y="92.5332">Odobrena</text><text fill="#000000" font-family="sans-serif" font-size="14" lengthAdjust="spacing" textLength="57" x="709.5" y="110.1426">Odbijena</text><text fill="#000000" font-family="sans-serif" font-size="14" lengthAdjust="spacing" textLength="69" x="709.5" y="127.752">NaCekanju</text><line style="stroke:#181818;stroke-width:0.5;" x1="704.5" x2="817.5" y1="134.8281" y2="134.8281"/></g><!--class TipFinansiranja--><g id="elem_TipFinansiranja"><rect codeLine="50" fill="#F1F1F1" height="83.2188" id="TipFinansiranja" rx="2.5" ry="2.5" style="stroke:#181818;stroke-width:0.5;" width="130" x="854" y="51"/><ellipse cx="869" cy="67" fill="#EB937F" rx="11" ry="11" style="stroke:#181818;stroke-width:1.0;"/><path d="M867.8594,67.7969 L867.8594,70.2969 L872.1875,70.2969 L872.1875,69.375 Q872.1875,68.7656 872.4219,68.5 Q872.6719,68.2344 873.0469,68.2344 Q873.4219,68.2344 873.6563,68.5 Q873.8906,68.7656 873.8906,69.375 L873.8906,72 L865.8906,72 Q865.2656,72 865,71.7656 Q864.75,71.5313 864.75,71.1406 Q864.75,70.7656 865.0156,70.5313 Q865.2813,70.2969 865.8906,70.2969 L866.1563,70.2969 L866.1563,63.6406 L865.8906,63.6406 Q865.2656,63.6406 865,63.4063 Q864.75,63.1719 864.75,62.7813 Q864.75,62.4063 865,62.1719 Q865.2656,61.9375 865.8906,61.9375 L873.5156,61.9375 L873.5156,64.5313 Q873.5156,65.1406 873.2813,65.4063 Q873.0625,65.6563 872.6719,65.6563 Q872.2969,65.6563 872.0625,65.4063 Q871.8281,65.1406 871.8281,64.5313 L871.8281,63.6406 L867.8594,63.6406 L867.8594,66.0938 L869.3438,66.0938 Q869.3438,65.4375 869.4688,65.25 Q869.7344,64.8438 870.2031,64.8438 Q870.5781,64.8438 870.8125,65.1094 Q871.0469,65.3594 871.0469,65.9688 L871.0469,67.9375 Q871.0469,68.4844 870.9219,68.6719 Q870.6563,69.0625 870.2031,69.0625 Q869.7344,69.0625 869.4688,68.6563 Q869.3438,68.4688 869.3438,67.7969 L867.8594,67.7969 Z " fill="#000000"/><text fill="#000000" font-family="sans-serif" font-size="14" lengthAdjust="spacing" textLength="98" x="883" y="72.7285">TipFinansiranja</text><line style="stroke:#181818;stroke-width:0.5;" x1="855" x2="983" y1="83" y2="83"/><text fill="#000000" font-family="sans-serif" font-size="14" lengthAdjust="spacing" textLength="43" x="860" y="101.5332">Budzet</text><text fill="#000000" font-family="sans-serif" font-size="14" lengthAdjust="spacing" textLength="116" x="860" y="119.1426">SamoFinansirajuci</text><line style="stroke:#181818;stroke-width:0.5;" x1="855" x2="983" y1="126.2188" y2="126.2188"/></g><!--reverse link Korisnik to Student--><g id="link_Korisnik_Student"><path codeLine="55" d="M291.0706,154.7466 C249.7006,186.8566 210.95,216.92 172.25,246.95 " fill="none" id="Korisnik-backto-Student" style="stroke:#181818;stroke-width:1.0;"/><polygon fill="none" points="305.29,143.71,287.3917,150.0068,294.7494,159.4865,305.29,143.71" style="stroke:#181818;stroke-width:1.0;"/></g><!--reverse link Korisnik to Majstor--><g id="link_Korisnik_Majstor"><path codeLine="56" d="M433.7234,193.197 C453.8234,224.647 465.37,242.7 479.1,264.19 " fill="none" id="Korisnik-backto-Majstor" style="stroke:#181818;stroke-width:1.0;"/><polygon fill="none" points="424.03,178.03,428.6677,196.4281,438.7791,189.9659,424.03,178.03" style="stroke:#181818;stroke-width:1.0;"/></g><!--link Soba to Student--><g id="link_Soba_Student"><path codeLine="58" d="M120,143.21 C120,175.32 120,216.58 120,246.75 " fill="none" id="Soba-Student" style="stroke:#181818;stroke-width:1.0;"/><text fill="#000000" font-family="sans-serif" font-size="13" lengthAdjust="spacing" textLength="7" x="98.8813" y="164.469">1</text><text fill="#000000" font-family="sans-serif" font-size="13" lengthAdjust="spacing" textLength="28" x="90.3813" y="180.8206">soba</text><text fill="#000000" font-family="sans-serif" font-size="13" lengthAdjust="spacing" textLength="20" x="83.6219" y="219.7987">0..*</text><text fill="#000000" font-family="sans-serif" font-size="13" lengthAdjust="spacing" textLength="46" x="70.6219" y="236.1502">studenti</text></g><!--link Student to ZahtevZaPopravku--><g id="link_Student_ZahtevZaPopravku"><path codeLine="60" d="M233.31,288.5 C244.99,288.5 256.66,288.5 268.33,288.5 " fill="none" id="Student-ZahtevZaPopravku" style="stroke:#181818;stroke-width:1.0;"/><text fill="#000000" font-family="sans-serif" font-size="13" lengthAdjust="spacing" textLength="7" x="233.1935" y="264.245">1</text><text fill="#000000" font-family="sans-serif" font-size="13" lengthAdjust="spacing" textLength="43" x="217.1935" y="280.5966">student</text></g><!--link ZahtevZaPopravku to Majstor--><g id="link_ZahtevZaPopravku_Majstor"><path codeLine="61" d="M419.59,288.5 C431.31,288.5 443.03,288.5 454.76,288.5 " fill="none" id="ZahtevZaPopravku-Majstor" style="stroke:#181818;stroke-width:1.0;"/><text fill="#000000" font-family="sans-serif" font-size="13" lengthAdjust="spacing" textLength="7" x="445.0195" y="314.3436">1</text><text fill="#000000" font-family="sans-serif" font-size="13" lengthAdjust="spacing" textLength="43" x="427.0195" y="330.6952">majstor</text></g><!--link Student to InfoOStudiranju--><g id="link_Student_InfoOStudiranju"><path codeLine="63" d="M120,330.05 C120,350.67 120,376.11 120,398.78 " fill="none" id="Student-InfoOStudiranju" style="stroke:#181818;stroke-width:1.0;"/><text fill="#000000" font-family="sans-serif" font-size="13" lengthAdjust="spacing" textLength="7" x="112.5734" y="388.0774">1</text></g><!--link Prijava to Student--><g id="link_Prijava_Student"><path codeLine="64" d="M546.3,125.52 C519.58,142.81 484.91,163.5 452,178 C366.68,215.59 339.33,208.17 251,238 C242.59,240.84 233.92,243.88 225.23,246.99 " fill="none" id="Prijava-Student" style="stroke:#181818;stroke-width:1.0;"/><text fill="#000000" font-family="sans-serif" font-size="13" lengthAdjust="spacing" textLength="7" x="512.8928" y="146.605">1</text><text fill="#000000" font-family="sans-serif" font-size="13" lengthAdjust="spacing" textLength="36" x="500.3928" y="162.9566">prijava</text><text fill="#000000" font-family="sans-serif" font-size="13" lengthAdjust="spacing" textLength="7" x="213.0512" y="219.716">1</text><text fill="#000000" font-family="sans-serif" font-size="13" lengthAdjust="spacing" textLength="43" x="195.0512" y="236.0675">student</text></g><!--link Prijava to Konkurs--><g id="link_Prijava_Konkurs"><path codeLine="65" d="M601.09,125.54 C609.49,158.79 622.65,210.9 631.77,246.99 " fill="none" id="Prijava-Konkurs" style="stroke:#181818;stroke-width:1.0;"/><text fill="#000000" font-family="sans-serif" font-size="13" lengthAdjust="spacing" textLength="20" x="571.5725" y="146.6281">0..*</text><text fill="#000000" font-family="sans-serif" font-size="13" lengthAdjust="spacing" textLength="36" x="563.5725" y="162.9797">prijave</text><text fill="#000000" font-family="sans-serif" font-size="13" lengthAdjust="spacing" textLength="7" x="600.1817" y="219.716">1</text><text fill="#000000" font-family="sans-serif" font-size="13" lengthAdjust="spacing" textLength="46" x="580.6817" y="236.0675">konkurs</text></g><!--SRC=[RLBBRkCm3BphAmGV5qZHN8qzfI-aHRS1t5FH2nqpgVmG3KdE0cxpxvNrS6otkOGS3uT3aViQjEPFf8IMekAVZDlVIXGf5zA4fC6KQwE4F7gWLTZ_0B41KIzuLle_gMA1qeBs-Bnv694pOtjdAJDTWT94HqQqzqA2r4A1B27bhtCWM9K7UXag7TYbstb-KN-6KXjILltIa7A8tN95fSrnyWeLjB0N1iq4wuyA2aYNrj_Wm-3f3NRKAZXLNLJj7RwzdIXGA_JyDHHgb9JodAX6a1VLnInHj5MaiThscS92bjRneIOmqsypw2xRx2RzZrJOHtIgPPZs7Fhjb2ZX1BRDIXimdKupz-Tn77bF9AjEwS7EG5Gc093UWi41hHIKS_3CK7ODdmaE0Yy5vGebk32tbbpu3swmYljpXOlbXxVOT4MFVh0C6XePPRSNG-buvN-_LgjuO0iq70PZxXoIDN-NsaO9jz-IwwkhFpRtXI8PRzIoG-GBV69hVfm2YuUNhDzbusFBg_5WVY6FiaFpTR8y0HPMvBksFl5ErnCNST2HxSVmV1pvbTzG4XVAEVi6]--></g></svg>