<?xml version="1.0" encoding="us-ascii" standalone="no"?><svg xmlns="http://www.w3.org/2000/svg" xmlns:xlink="http://www.w3.org/1999/xlink" contentStyleType="text/css" height="791px" preserveAspectRatio="none" style="width:454px;height:791px;background:#FFFFFF;" version="1.1" viewBox="0 0 454 791" width="454px" zoomAndPan="magnify"><defs/><g><!--cluster Studentski Dom--><g id="cluster_Studentski Dom"><rect fill="none" height="778" rx="2.5" ry="2.5" style="stroke:#181818;stroke-width:1.0;" width="349" x="99" y="7"/><text fill="#000000" font-family="sans-serif" font-size="14" font-weight="bold" lengthAdjust="spacing" textLength="110" x="218.5" y="23.5332">Studentski Dom</text></g><g id="elem_UC1"><ellipse cx="273.597" cy="469.1194" fill="#F1F1F1" rx="81.097" ry="18.6194" style="stroke:#181818;stroke-width:0.5;"/><text fill="#000000" font-family="sans-serif" font-size="14" lengthAdjust="spacing" textLength="117" x="214.5843" y="472.9982">Prijava na konkurs</text></g><g id="elem_UC2"><ellipse cx="273.3414" cy="550.0683" fill="#F1F1F1" rx="123.3414" ry="27.0683" style="stroke:#181818;stroke-width:0.5;"/><text fill="#000000" font-family="sans-serif" font-size="14" lengthAdjust="spacing" textLength="212" x="167.3414" y="553.7968">Podnosenje zahteva za premestaj</text></g><g id="elem_UC3"><ellipse cx="273.4467" cy="638.7893" fill="#F1F1F1" rx="121.9467" ry="26.7893" style="stroke:#181818;stroke-width:0.5;"/><text fill="#000000" font-family="sans-serif" font-size="14" lengthAdjust="spacing" textLength="209" x="168.9467" y="642.5179">Podnosenje zahteva za popravku</text></g><g id="elem_UC4"><ellipse cx="273.5017" cy="394.0003" fill="#F1F1F1" rx="93.0017" ry="21.0003" style="stroke:#181818;stroke-width:0.5;"/><text fill="#000000" font-family="sans-serif" font-size="14" lengthAdjust="spacing" textLength="145" x="201.0017" y="397.7289">Pregled statusa prijave</text></g><g id="elem_UC5"><ellipse cx="273.4202" cy="146.784" fill="#F1F1F1" rx="81.9202" ry="18.784" style="stroke:#181818;stroke-width:0.5;"/><text fill="#000000" font-family="sans-serif" font-size="14" lengthAdjust="spacing" textLength="119" x="213.7512" y="150.5629">Kreiranje konkursa</text></g><g id="elem_UC6"><ellipse cx="273.5677" cy="218.2135" fill="#F1F1F1" rx="71.5677" ry="16.7135" style="stroke:#181818;stroke-width:0.5;"/><text fill="#000000" font-family="sans-serif" font-size="14" lengthAdjust="spacing" textLength="92" x="224.5677" y="222.7301">Kreiranje soba</text></g><g id="elem_UC7"><ellipse cx="273.3675" cy="304.0735" fill="#F1F1F1" rx="158.3675" ry="34.0735" style="stroke:#181818;stroke-width:0.5;"/><text fill="#000000" font-family="sans-serif" font-size="14" lengthAdjust="spacing" textLength="286" x="130.3675" y="307.802">Odobravanje zahteva za premestaj studenata</text></g><g id="elem_UC8"><ellipse cx="273.3903" cy="68.0781" fill="#F1F1F1" rx="110.8903" ry="24.5781" style="stroke:#181818;stroke-width:0.5;"/><text fill="#000000" font-family="sans-serif" font-size="14" lengthAdjust="spacing" textLength="185" x="180.8903" y="71.8066">Brisanje zahteva za popravku</text></g><g id="elem_UC9"><ellipse cx="273.4296" cy="734.7859" fill="#F1F1F1" rx="156.9296" ry="33.7859" style="stroke:#181818;stroke-width:0.5;"/><text fill="#000000" font-family="sans-serif" font-size="14" lengthAdjust="spacing" textLength="283" x="131.9296" y="738.5144">Oznacavanje zahteva za popravku kao re&#353;en</text></g><!--entity A--><g id="elem_A"><ellipse cx="30.5" cy="152.5" fill="#F1F1F1" rx="8" ry="8" style="stroke:#181818;stroke-width:0.5;"/><path d="M30.5,160.5 L30.5,187.5 M17.5,168.5 L43.5,168.5 M30.5,187.5 L17.5,202.5 M30.5,187.5 L43.5,202.5 " fill="none" style="stroke:#181818;stroke-width:0.5;"/><text fill="#000000" font-family="sans-serif" font-size="14" lengthAdjust="spacing" textLength="39" x="11" y="218.5332">Admin</text></g><!--entity S--><g id="elem_S"><ellipse cx="30.5" cy="479.5" fill="#F1F1F1" rx="8" ry="8" style="stroke:#181818;stroke-width:0.5;"/><path d="M30.5,487.5 L30.5,514.5 M17.5,495.5 L43.5,495.5 M30.5,514.5 L17.5,529.5 M30.5,514.5 L43.5,529.5 " fill="none" style="stroke:#181818;stroke-width:0.5;"/><text fill="#000000" font-family="sans-serif" font-size="14" lengthAdjust="spacing" textLength="49" x="6" y="545.5332">Student</text></g><!--entity M--><g id="elem_M"><ellipse cx="30.5" cy="704.5" fill="#F1F1F1" rx="8" ry="8" style="stroke:#181818;stroke-width:0.5;"/><path d="M30.5,712.5 L30.5,739.5 M17.5,720.5 L43.5,720.5 M30.5,739.5 L17.5,754.5 M30.5,739.5 L43.5,754.5 " fill="none" style="stroke:#181818;stroke-width:0.5;"/><text fill="#000000" font-family="sans-serif" font-size="14" lengthAdjust="spacing" textLength="46" x="7.5" y="770.5332">Majstor</text></g><!--link S to UC1--><g id="link_S_UC1"><path d="M55.05,505.99 C90.16,500.02 151.615,489.5663 202.105,480.9763 " fill="none" id="S-to-UC1" style="stroke:#181818;stroke-width:1.0;"/><polygon fill="#181818" points="208.02,479.97,198.4766,477.5362,203.0908,480.8086,199.8184,485.4228,208.02,479.97" style="stroke:#181818;stroke-width:1.0;"/></g><!--link S to UC2--><g id="link_S_UC2"><path d="M55.05,513.91 C82.82,518.52 124.8509,525.498 168.6709,532.768 " fill="none" id="S-to-UC2" style="stroke:#181818;stroke-width:1.0;"/><polygon fill="#181818" points="174.59,533.75,166.366,528.3309,169.6574,532.9317,165.0567,536.223,174.59,533.75" style="stroke:#181818;stroke-width:1.0;"/></g><!--link S to UC3--><g id="link_S_UC3"><path d="M51.11,549.13 C61.01,565.23 74.47,582.72 91,594 C113.26,609.19 134.3455,617.7797 160.5455,624.4497 " fill="none" id="S-to-UC3" style="stroke:#181818;stroke-width:1.0;"/><polygon fill="#181818" points="166.36,625.93,158.625,619.8332,161.5146,624.6964,156.6514,627.586,166.36,625.93" style="stroke:#181818;stroke-width:1.0;"/></g><!--link S to UC4--><g id="link_S_UC4"><path d="M53.8,470.71 C63.53,456.83 76.14,442.37 91,433 C118.81,415.47 147.3665,406.7354 178.7565,401.3454 " fill="none" id="S-to-UC4" style="stroke:#181818;stroke-width:1.0;"/><polygon fill="#181818" points="184.67,400.33,175.1229,397.9108,179.7421,401.1762,176.4768,405.7954,184.67,400.33" style="stroke:#181818;stroke-width:1.0;"/></g><!--link A to UC6--><g id="link_A_UC6"><path d="M50.01,185.69 C84.34,190.67 153.3224,200.6872 206.7224,208.4472 " fill="none" id="A-to-UC6" style="stroke:#181818;stroke-width:1.0;"/><polygon fill="#181818" points="212.66,209.31,204.3288,204.0573,207.712,208.591,203.1783,211.9742,212.66,209.31" style="stroke:#181818;stroke-width:1.0;"/></g><!--link A to UC5--><g id="link_A_UC5"><path d="M50.01,180.23 C82.58,175.37 145.7359,165.9367 198.3359,158.0767 " fill="none" id="A-to-UC5" style="stroke:#181818;stroke-width:1.0;"/><polygon fill="#181818" points="204.27,157.19,194.7777,154.564,199.3249,157.9289,195.96,162.4762,204.27,157.19" style="stroke:#181818;stroke-width:1.0;"/></g><!--link A to UC7--><g id="link_A_UC7"><path d="M50.24,211.72 C60.7,225.71 74.88,241.69 91,252 C110.47,264.45 127.2738,272.1355 149.6738,279.4155 " fill="none" id="A-to-UC7" style="stroke:#181818;stroke-width:1.0;"/><polygon fill="#181818" points="155.38,281.27,148.057,274.6841,150.6248,279.7246,145.5843,282.2924,155.38,281.27" style="stroke:#181818;stroke-width:1.0;"/></g><!--link A to UC8--><g id="link_A_UC8"><path d="M50.19,151.5 C60.47,136.79 74.49,120.29 91,110 C115.57,94.69 139.2811,86.2536 167.3611,80.0536 " fill="none" id="A-to-UC8" style="stroke:#181818;stroke-width:1.0;"/><polygon fill="#181818" points="173.22,78.76,163.5693,76.7945,168.3376,79.838,165.2941,84.6064,173.22,78.76" style="stroke:#181818;stroke-width:1.0;"/></g><!--link M to UC9--><g id="link_M_UC9"><path d="M53.74,735 C69.36,735 85.78,735 110.38,735 " fill="none" id="M-to-UC9" style="stroke:#181818;stroke-width:1.0;"/><polygon fill="#181818" points="116.38,735,107.38,731,111.38,735,107.38,739,116.38,735" style="stroke:#181818;stroke-width:1.0;"/></g><!--SRC=[ZL9BJWGX5DnpYXTMkfY5yv-DIQixqz6aum7UDCyU-WCTe2TnZ8VnCDvBIAFf8MfCI2WULLGzeALd1qw3aTN1WP26IYUrOhQHgaU37VHODbXHuLvQWh2Dgcg9CIoTDi0pqKd50IraiLIuGP1oeLJ4Kewr3RClvOnz7m8yShqRtEcEmojZ08Eb4Yt1nTFjrMNGy4SZQpmYA8H6gsOmbiCvSHw9MYXjITK49pmuyfeJGc-e8-kmJbMBFrMwDtXi1dwkMNv58j-107-i6spm214fTLYDx7j3qc0mYFan9QvJejLxJAmt8-T1wBrFXhzrwJE5MqMNwhUZ_iP8Y_zhTXSTJmhB7noZ21hqFuW-tadny805p6RNu5zlWkSJl9ZWPH1aSR6UuDK4RoPuwx4VULpks1lx1000]--></g></svg>